<svg width="19" height="18" fill="none" xmlns="http://www.w3.org/2000/svg"><path fill-rule="evenodd" clip-rule="evenodd" d="M.2 9c0-3.595 0-5.393.856-6.687A5.16 5.16 0 0 1 2.512.857C3.807 0 5.604 0 9.199 0s5.393 0 6.688.857a5.16 5.16 0 0 1 1.456 1.456c.856 1.294.856 3.092.856 6.687s0 5.393-.857 6.687a5.159 5.159 0 0 1-1.455 1.456C14.592 18 12.794 18 9.199 18c-3.595 0-5.392 0-6.687-.857a5.159 5.159 0 0 1-1.456-1.456C.199 14.393.199 12.595.199 9zm13.658 0a4.66 4.66 0 1 1-9.319 0 4.66 4.66 0 0 1 9.319 0zm-4.66 3.082a3.083 3.083 0 1 0 0-6.166 3.083 3.083 0 0 0 0 6.166zm4.842-6.88a1.095 1.095 0 1 0 0-2.19 1.095 1.095 0 0 0 0 2.19z" fill="#0A0A12"/></svg>