<svg width="19" height="18" fill="none" xmlns="http://www.w3.org/2000/svg"><path d="M.2 2.42c0-.578.202-1.054.607-1.43.406-.375.933-.562 1.581-.562.637 0 1.153.184 1.547.554.405.38.608.877.608 1.489a1.82 1.82 0 0 1-.59 1.385c-.406.381-.94.572-1.6.572h-.017c-.637 0-1.152-.19-1.546-.572C.396 3.476.2 2.996.2 2.42zm.225 15.15V6.004h3.857v11.568H.425zm5.994 0h3.857v-6.458c0-.404.047-.716.14-.935.162-.393.408-.725.738-.996s.744-.407 1.242-.407c1.297 0 1.946.872 1.946 2.615v6.182H18.2v-6.632c0-1.709-.405-3.005-1.216-3.888-.81-.883-1.882-1.325-3.214-1.325-1.495 0-2.659.641-3.493 1.923v.034h-.017l.017-.034V6.003H6.42c.023.37.035 1.519.035 3.446 0 1.928-.012 4.635-.035 8.122z" fill="#0A0A12"/></svg>