<svg width="19" height="16" fill="none" xmlns="http://www.w3.org/2000/svg"><path d="M12.226.7V.698h.844l.309.062c.205.04.392.092.56.157.167.065.33.14.486.227.157.086.3.175.427.264.127.089.24.183.341.282.1.1.255.127.466.078a6.24 6.24 0 0 0 .682-.203c.243-.086.484-.183.722-.291.238-.108.383-.177.435-.206l.081-.049.003-.005.017-.008.016-.008.016-.008.016-.008.004-.005.005-.003.004-.003.004-.005.016-.005.016-.003-.003.024-.005.024-.008.025-.008.024-.008.016-.009.016-.008.025a.579.579 0 0 0-.016.064 2.714 2.714 0 0 1-.154.325c-.097.189-.22.38-.365.575a2.83 2.83 0 0 1-.393.44c-.117.101-.194.172-.232.212a.698.698 0 0 1-.138.113l-.081.054-.017.008-.016.008-.003.005-.005.003-.005.003-.003.005-.016.008-.016.008-.004.005-.005.003-.004.003-.004.005-.003.005-.005.003-.005.004-.003.005h.081l.455-.098c.303-.065.592-.143.868-.235l.438-.146.049-.016.024-.008.017-.008.016-.008.016-.008.016-.008.033-.005.032-.003v.032l-.008.003-.008.005-.003.005-.005.003-.005.003-.003.005-.004.005-.004.003-.005.004-.003.005-.004.004-.005.004-.008.016-.008.016-.005.003-.206.276c-.135.181-.208.273-.219.275-.01.004-.026.02-.045.049a4.65 4.65 0 0 1-.345.361c-.21.211-.417.399-.62.563a.767.767 0 0 0-.308.61c-.003.24-.016.51-.037.813-.022.303-.062.63-.122.98-.06.352-.151.749-.276 1.192a10.822 10.822 0 0 1-1.014 2.431 10.913 10.913 0 0 1-1.03 1.507 9.65 9.65 0 0 1-.637.694c-.258.256-.398.397-.422.422-.025.023-.131.112-.318.265-.186.155-.387.31-.6.464a6.945 6.945 0 0 1-.588.384c-.179.103-.394.22-.646.352a7.694 7.694 0 0 1-.815.37c-.292.113-.6.218-.925.316a8.444 8.444 0 0 1-.942.226c-.303.054-.646.1-1.03.138l-.577.057v.008H5.344v-.008l-.138-.008a7.414 7.414 0 0 1-.227-.016c-.06-.006-.284-.036-.673-.09a9.733 9.733 0 0 1-.917-.162 12.163 12.163 0 0 1-.99-.308 9.612 9.612 0 0 1-1.125-.458c-.31-.154-.506-.251-.585-.292a4.174 4.174 0 0 1-.263-.15l-.146-.088-.003-.005-.005-.003-.005-.004-.003-.005-.016-.008-.016-.008-.004-.005-.004-.003-.005-.003-.004-.005-.003-.005-.005-.003H.2v-.032l.016.003.017.005.073.008c.048.005.181.013.397.024a7.341 7.341 0 0 0 2.338-.267c.346-.092.664-.201.954-.328.289-.127.494-.222.617-.285.121-.062.306-.176.555-.344l.373-.25.003-.006.005-.003.005-.003.003-.005.004-.005.005-.003.004-.003.004-.005.016-.005.016-.003.003-.017.005-.016.005-.003.003-.005-.13-.008-.251-.016a2.436 2.436 0 0 1-.382-.073 3.655 3.655 0 0 1-.56-.195 4.32 4.32 0 0 1-.584-.308 2.885 2.885 0 0 1-.41-.296 7.176 7.176 0 0 1-.325-.33 3.278 3.278 0 0 1-.344-.443 3.97 3.97 0 0 1-.28-.524l-.134-.295-.008-.024-.008-.025-.005-.016-.003-.016.024.003.024.005.179.024c.119.017.306.022.56.017.254-.006.43-.017.527-.033.098-.016.157-.027.179-.032l.032-.008.04-.008.041-.008.004-.005.005-.004.004-.003.004-.005-.033-.008-.032-.008-.033-.008-.032-.008-.033-.008a2.985 2.985 0 0 1-.113-.033 6.234 6.234 0 0 1-.438-.178 3.353 3.353 0 0 1-.569-.3 3.923 3.923 0 0 1-.402-.32 4.59 4.59 0 0 1-.417-.45 3.242 3.242 0 0 1-.406-.64 3.89 3.89 0 0 1-.268-.697 3.758 3.758 0 0 1-.117-.672l-.029-.34.016.002.017.005.016.008.016.008.016.009.017.008.251.113c.168.076.376.14.625.195.249.054.398.083.446.089l.073.008h.146l-.003-.005-.005-.003-.005-.003-.003-.005-.003-.005-.005-.003-.005-.004-.003-.005-.016-.008-.016-.008-.004-.005-.005-.003-.004-.003-.004-.005-.016-.008-.016-.008-.003-.005-.14-.104A2.128 2.128 0 0 1 2 5.811a9.535 9.535 0 0 1-.291-.34 2.627 2.627 0 0 1-.26-.381 4.615 4.615 0 0 1-.24-.516 3.654 3.654 0 0 1-.263-1.251c-.006-.205 0-.38.016-.527.016-.146.049-.31.097-.494a3.85 3.85 0 0 1 .211-.584l.138-.308.009-.024.008-.024.005-.003.003-.005.003-.005.005-.003.005.003.003.005.003.005.005.003.005.003.003.005.003.005.005.003.008.016.009.016.004.004.004.005.219.243c.146.162.319.343.52.543.2.2.31.303.332.31a.238.238 0 0 1 .081.075c.033.04.14.136.325.287.184.152.424.327.722.527s.628.397.99.592c.363.194.752.37 1.169.526.416.157.708.26.876.308.168.049.455.111.86.187.406.075.712.124.917.146.206.021.347.034.422.037l.114.003-.003-.024-.005-.024-.033-.203a3.803 3.803 0 0 1-.032-.567c0-.243.019-.468.057-.673a3.98 3.98 0 0 1 .17-.624c.076-.21.15-.38.223-.507.073-.127.17-.271.288-.433.12-.162.274-.33.463-.503a3.41 3.41 0 0 1 .65-.461c.243-.136.467-.238.673-.308.205-.07.379-.117.52-.138.14-.022.21-.034.21-.037z" fill="#0A0A12"/></svg>